# xmcd
#
# Track frame offsets:
#        150
#        18537
#        34384
#        48834
#        66017
#        82114
#        100571
#        115039
#        129531
#        148763
#        165475
#        183862
#        199709
#        214226
#        231364
#        247462
#        265922
#        280392
#        294882
#        314112
#
# Disc length: 4410 seconds
#
# Revision: 0
# Processed by: cddbd v1.5.2PL0 Copyright (c) Steve Scherf et al.
# Submitted via: CDGFix 3.8d
#
DISCID=31113814
DTITLE=Various Artist - THMPLP011
DYEAR=1900
DGENRE=Karaoke
TTITLE0=Jo Dee Messina - Even God Must Get The Blues (Vocals)
TTITLE1=Jo Dee Messina - I Know A Headache (Vocals)
TTITLE2=Jo Dee Messina - I'm Alright (Vocals)
TTITLE3=Jo Dee Messina - Stand Beside Me (Vocals)
TTITLE4=Jo Dee Messina - Lesson In Leavin' (Vocals)
TTITLE5=Jo Dee Messina - Because You Love Me (Vocals)
TTITLE6=Jo Dee Messina - No Time For Tears (Vocals)
TTITLE7=Jo Dee Messina - That's The Way (Vocals)
TTITLE8=Jo Dee Messina - Burn (Vocals)
TTITLE9=Jo Dee Messina - Downtime (Vocals)
TTITLE10=Jo Dee Messina - Even God Must Get The Blues
TTITLE11=Jo Dee Messina - I Know A Headache
TTITLE12=Jo Dee Messina - I'm Alright
TTITLE13=Jo Dee Messina - Stand Beside Me
TTITLE14=Jo Dee Messina - Lesson In Leavin'
TTITLE15=Jo Dee Messina - Because You Love Me
TTITLE16=Jo Dee Messina - No Time For Tears
TTITLE17=Jo Dee Messina - That's The Way
TTITLE18=Jo Dee Messina - Burn
TTITLE19=Jo Dee Messina - Downtime
EXTD=
EXTT0=
EXTT1=
EXTT2=
EXTT3=
EXTT4=
EXTT5=
EXTT6=
EXTT7=
EXTT8=
EXTT9=
EXTT10=
EXTT11=
EXTT12=
EXTT13=
EXTT14=
EXTT15=
EXTT16=
EXTT17=
EXTT18=
EXTT19=
PLAYORDER=
